# xmcd
# 
# Track frame offsets:
#     150
#     16650
#     31000
#     46053
#     61514
#     75009
#     89201
#     99551
#     115851
#     128370
#     149227
#     167703
# 
# Disc length: 2391
# 
# Revision: 1
# Processed by: cddbd v1.5.2PL0 Copyright (c) Steve Scherf et al.
# Submitted via: BonkEnc v1.0
# 
DISCID=8609550c
DTITLE=John Denver - Greatest Hits-Disc 1
DYEAR=2005
DGENRE=Country
TTITLE0=Leaving on a Jet Plane
TTITLE1=Take Me Home_Country Roads
TTITLE2=City of New Orleans
TTITLE3=Friends with You
TTITLE4=Annie's Song
TTITLE5=Thank God I'm a Country Boy
TTITLE6=Grandma's Feather Bed
TTITLE7=Calypso
TTITLE8=Garden Song
TTITLE9=Thirsty Boots
TTITLE10=Dreamland Express
TTITLE11=It Amazes Me
EXTD=YEAR: 2005
EXTT0=
EXTT1=
EXTT2=
EXTT3=
EXTT4=
EXTT5=
EXTT6=
EXTT7=
EXTT8=
EXTT9=
EXTT10=
EXTT11=
PLAYORDER=
